# xmcd
# 
# Track frame offsets:
#	225
#	13204
#	25504
#	36932
#	46634
#	59583
#	69560
#	82694
#	95702
#	114094
#	129917
#	140544
#	155615
#	166381
#	176626
#	191567
#
# Disc length: 2883 seconds
#
# Revision: 1
# Processed by: cddbd v1.4PL0 Copyright (c) Steve Scherf et al.
# Submitted via: Audio-CD-Archiv 2.10.435
#
DISCID=cc0b4010
DTITLE=Various Artist - Trucker and Country Christmas Fete [CD2)
DYEAR=1900
DGENRE=country
TTITLE0=Dave Dudley - Can i Sing A Christmas Song For You
TTITLE1=Ferlin Husky - I Could Sing All Night
TTITLE2=Ty Hunter - Christmas
TTITLE3=Dave Dudley - Oh, Christmas Tree
TTITLE4=Sarah Lee and The Santa Claus Singers - Very Special Christmas
TTITLE5=Dave Dudley - Lonely Christmas Again
TTITLE6=Bud Martin - Santa Does Your Reindeer Fly To Heaven
TTITLE7=Ty Hunter - The Gifdt I Can Return
TTITLE8=Dave Dudley - Reverend Nicolas
TTITLE9=Jonny Hill - Zu Hause brennt ein Lichterbaum
TTITLE10=Dave Dudley - All I Want For Christmas Is You For Me
TTITLE11=David Price - Love Him Tender, Sweet Jesus
TTITLE12=Bobby Bare - Jesus Christ, What A Man
TTITLE13=Ty Hunter - Honky Tonk Holiday
TTITLE14=Bud Martin - Little Baby Jesus
TTITLE15=Freddy Quinn mit dem Bergedorfer Chor - Stille Nacht, Heilige Nacht
EXTD=
EXTT0=
EXTT1=
EXTT2=
EXTT3=
EXTT4=
EXTT5=
EXTT6=
EXTT7=
EXTT8=
EXTT9=
EXTT10=
EXTT11=
EXTT12=
EXTT13=
EXTT14=
EXTT15=
PLAYORDER=
